# xmcd
#
# Track frame offsets: 
#        150
#        9825
#        21502
#        33652
#        45337
#        56630
#        68810
#        80870
#        91907
#        103697
#
# Disc length: 1517 seconds
#
# Revision: 0
# Processed by: cddbd v1.4PL0 Copyright (c) Steve Scherf et al.
# Submitted via: ExactAudioCopy v0.90b3
#
DISCID=7b05eb0a
DTITLE=George Jones - Country Legend
DYEAR=1900
DGENRE=Country
TTITLE0=The Race Is On
TTITLE1=She Thinks I Still Care
TTITLE2=A Girl I Used To Know
TTITLE3=Where Does A Little Tear Come From
TTITLE4=My Tears Are Overdue
TTITLE5=You Comb Her Hair
TTITLE6=We Must Have Been Out Of Our Minds (With Melba Montgomery)
TTITLE7=Not What I Had In Mind
TTITLE8=Wrong Number
TTITLE9=Your Heart Turned Left
EXTD=
EXTT0=
EXTT1=
EXTT2=
EXTT3=
EXTT4=
EXTT5=
EXTT6=
EXTT7=
EXTT8=
EXTT9=
PLAYORDER=
